<svg width="24" height="24" viewBox="0 0 24 24" fill="none" xmlns="http://www.w3.org/2000/svg">
<rect width="24" height="24" fill="white"/>
<g clip-path="url(#clip0_17375_2663)">
<path d="M20.8087 12.2025C20.8087 11.61 20.7562 11.0475 20.6662 10.5H12.1912V13.8825H17.0437C16.8262 14.9925 16.1887 15.93 15.2437 16.5675V18.8175H18.1387C19.8337 17.25 20.8087 14.94 20.8087 12.2025Z" fill="#4285F4"/>
<path d="M12.1913 20.9998C14.6213 20.9998 16.6538 20.1898 18.1388 18.8173L15.2438 16.5673C14.4338 17.1073 13.4063 17.4373 12.1913 17.4373C9.84375 17.4373 7.85625 15.8548 7.14375 13.7173H4.15875V16.0348C5.63625 18.9748 8.67375 20.9998 12.1913 20.9998Z" fill="#34A853"/>
<path d="M7.14372 13.7173C6.95622 13.1773 6.85872 12.5998 6.85872 11.9998C6.85872 11.3998 6.96372 10.8223 7.14372 10.2823V7.96484H4.15872C3.54372 9.17984 3.19122 10.5448 3.19122 11.9998C3.19122 13.4548 3.54372 14.8198 4.15872 16.0348L7.14372 13.7173Z" fill="#FBBC05"/>
<path d="M12.1913 6.5625C13.5188 6.5625 14.7038 7.02 15.6413 7.9125L18.2063 5.3475C16.6538 3.8925 14.6213 3 12.1913 3C8.67375 3 5.63625 5.025 4.15875 7.965L7.14375 10.2825C7.85625 8.145 9.84375 6.5625 12.1913 6.5625Z" fill="#EA4335"/>
</g>
<defs>
<clipPath id="clip0_17375_2663">
<rect width="18" height="18" fill="white" transform="translate(3 3)"/>
</clipPath>
</defs>
</svg>
